<svg id="Layer_1" data-name="Layer 1" xmlns="http://www.w3.org/2000/svg" viewBox="0 0 726.13 726.13"><defs><style>.cls-1{fill:#5ece7b;}.cls-2{fill:#fff;}</style></defs><circle class="cls-1" cx="363.06" cy="363.06" r="363.06"/><path class="cls-2" d="M918.55,639.56a19.39,19.39,0,0,0-7.34-1.14H636.13c-6.37,0-6.36,0-8.16-6.22-2.71-9.36-5.21-18.78-8.1-28.08-2.33-7.54-6.49-10.61-14.36-10.65q-25.85-.13-51.71,0c-7.44,0-10.63,2.46-12.88,9.39v6c3,6.42,8,8.56,15,8.36,13.24-.38,26.49-.05,39.73-.17,2.48,0,3.64.51,4.37,3.09q26.16,92,52.53,183.93a7.41,7.41,0,0,1-.61,6c-2.62,4.94-5.3,9.9-6.05,15.58-2.79,21.16,12.6,38.77,34,38.86,8.26,0,16.53,0,24.8,0-21.11,5-29.49,22.72-27.88,37.24A33.82,33.82,0,0,0,709.53,932c17.4.36,31.69-12,34.34-29.7,2.54-17-8.56-31.88-28-37.56H818.76c-21.58,4.62-30.42,22.13-28.75,37.06a33.75,33.75,0,0,0,67.19-.63c1.56-17.45-10.29-32.55-28.53-36.62h5c11.62,0,23.24.07,34.86,0a11.21,11.21,0,0,0,2.33-22.18A23,23,0,0,0,866,842l-185.17,0c-10.54,0-15.38-8-11.09-17.57,1.72-3.84,3.8-5,8-5q94.08.24,188.16.11c8.49,0,11.71-2.39,14-10.45q18.33-64.11,36.7-128.21c2.6-9,4.62-18.25,8.12-27v-6C923.94,644.16,922.33,641.1,918.55,639.56ZM834.81,898a11.25,11.25,0,1,1-11.42-11A11.42,11.42,0,0,1,834.81,898Zm-113.21.34A11.24,11.24,0,1,1,710.52,887,11.42,11.42,0,0,1,721.6,898.3ZM881.12,723.48c-6.7,23.47-13.46,46.92-20.07,70.42-.7,2.48-1.69,3.2-4.28,3.2q-89.76-.14-179.52,0c-2.45,0-3.63-.46-4.37-3.08q-18.46-65.24-37.16-130.4c-.1-.35-.14-.72-.26-1.36H898.55C892.71,682.78,886.93,703.14,881.12,723.48Z" transform="translate(-369.79 -399.62)"/></svg>